<svg xmlns="http://www.w3.org/2000/svg" version="1.1" xmlns:xlink="http://www.w3.org/1999/xlink" xmlns:svgjs="http://svgjs.dev/svgjs" width="1500" height="1500" viewBox="0 0 1500 1500"><rect width="1500" height="1500" fill="#ffffff"></rect><g transform="matrix(0.6666666666666666,0,0,0.6666666666666666,248.88125742993782,628.3637267973855)"><svg viewBox="0 0 208 51" data-background-color="#ffffff" preserveAspectRatio="xMidYMid meet" height="367" width="1500" xmlns="http://www.w3.org/2000/svg" xmlns:xlink="http://www.w3.org/1999/xlink"><g id="tight-bounds" transform="matrix(1,0,0,1,0.23269845457292604,-0.14529999999999177)"><svg viewBox="0 0 207.53460309085415 51.2906" height="51.2906" width="207.53460309085415"><g><svg viewBox="0 0 207.53460309085415 51.2906" height="51.2906" width="207.53460309085415"><g><svg viewBox="0 0 207.53460309085415 51.2906" height="51.2906" width="207.53460309085415"><g id="textblocktransform"><svg viewBox="0 0 207.53460309085415 51.2906" height="51.2906" width="207.53460309085415" id="textblock"><g><svg viewBox="0 0 207.53460309085415 51.2906" height="51.2906" width="207.53460309085415"><g><svg><g></g><g></g></svg></g><g><svg><g><svg></svg></g><g></g></svg></g><g id="text-0"><svg viewBox="0 0 207.53460309085415 51.2906" height="51.2906" width="207.53460309085415"><g transform="matrix(1,0,0,1,0,0)"><svg width="111.9656" viewBox="0.6 -31.3 69.2 31.7" height="51.2906" data-palette-color="#264f0b"><path d="M6.75-31.3L10.4-31.3 10.4-25 17.55-25 17.55-20.8 10.4-20.8 10.4-8.15Q10.4-6.55 10.85-5.83 11.3-5.1 13-5.1 14.7-5.1 16.65-5.85L16.65-5.85 18.15-1.95Q14.3 0 10.28 0 6.25 0 4.83-1.73 3.4-3.45 3.4-6.75L3.4-6.75 3.4-20.8 1.15-20.8 0.6-23.85Q1.4-24.8 3.9-25.75L3.9-25.75Q4.5-29.85 6.75-31.3L6.75-31.3ZM31.9 0.4L31.9 0.4Q25.9 0.4 22.87-2.8 19.85-6 19.85-12.1L19.85-12.1Q19.85-15.8 20.9-18.48 21.95-21.15 23.75-22.6L23.75-22.6Q27.25-25.4 31.9-25.4 36.55-25.4 39.02-23.03 41.5-20.65 41.5-14.5L41.5-14.5Q41.5-10.9 37.95-10.9L37.95-10.9 27.1-10.9Q27.3-7.75 28.72-6.45 30.15-5.15 33.25-5.15L33.25-5.15Q34.95-5.15 36.5-5.55 38.05-5.95 38.75-6.35L38.75-6.35 39.45-6.75 40.95-2.75Q40.65-2.4 40.07-1.88 39.5-1.35 37.17-0.48 34.85 0.4 31.9 0.4ZM27.15-15.05L35.05-15.35Q35.15-16.05 35.15-17.05 35.15-18.05 34.35-19.18 33.55-20.3 31.57-20.3 29.6-20.3 28.55-19.1 27.5-17.9 27.15-15.05L27.15-15.05ZM56.75-15.2L57.45-15.2Q57.8-16.55 58.9-18.3L58.9-18.3 59.8-19.7Q58.35-20.35 57.75-21.15L57.75-21.15 58.25-25 69.25-25 69.75-21.15Q68.75-19.8 65.7-19L65.7-19 61.3-12.85 66-5.9Q68.75-5.15 69.8-3.85L69.8-3.85 69.3 0 57.8 0 57.3-3.85Q57.8-4.5 59.15-5.15L59.15-5.15 57.9-7.2Q57.05-8.6 56.6-10.15L56.6-10.15 56.45-10.65 55.75-10.65Q55.3-8.9 54.3-7.3L54.3-7.3 53.1-5.4Q54.8-4.65 55.4-3.85L55.4-3.85 54.9 0 43.9 0 43.4-3.85Q44.35-5.1 47.15-5.9L47.15-5.9 51.9-12.85 47.5-19Q44.5-19.8 43.45-21.15L43.45-21.15 43.95-25 55.45-25 55.95-21.15Q55.25-20.35 54.25-19.9L54.25-19.9 55.3-18.4Q56.3-16.9 56.75-15.2L56.75-15.2Z" opacity="1" transform="matrix(1,0,0,1,0,0)" fill="#000000" class="wordmark-text-0" data-fill-palette-color="primary"></path></svg></g><g><svg xmlns="http://www.w3.org/2000/svg" data-name="Layer 1" viewBox="2.430551295781235 20.791724898981606 95.13905147020833 58.4682751010184" x="124.07499999999999" y="0" height="51.2906" width="83.45960309085417" class="icon-cg-0" data-fill-palette-color="accent" id="cg-0"><path d="M62.78 23l32 55.42 1.3-2.26h-64l1.3 2.26L65.37 23a1.5 1.5 0 0 0-2.59-1.51L30.79 77a1.51 1.51 0 0 0 1.3 2.26h64A1.51 1.51 0 0 0 97.37 77l-32-55.42A1.5 1.5 0 0 0 62.78 23Z" fill="#000000" data-fill-palette-color="accent"></path><path d="M34.63 23l32 55.42 1.3-2.26h-64l1.3 2.26L37.22 23a1.5 1.5 0 0 0-2.59-1.51L2.63 77a1.51 1.51 0 0 0 1.3 2.26h64A1.51 1.51 0 0 0 69.21 77l-32-55.42A1.5 1.5 0 0 0 34.63 23Z" fill="#000000" data-fill-palette-color="accent"></path></svg></g></svg></g></svg></g></svg></g></svg></g></svg></g><defs></defs></svg><rect width="207.53460309085415" height="51.2906" fill="none" stroke="none" visibility="hidden"></rect></g></svg></g></svg>